<?xml version="1.0" encoding="UTF-8" standalone="no"?>
<svg
   version="1.1"
   viewBox="0 0 366.25 53.75"
   width="366.25"
   height="53.75"
   id="svg2"
   sodipodi:docname="healthBarBack.svg"
   inkscape:version="1.4.2 (ebf0e940d0, 2025-05-08)"
   xmlns:inkscape="http://www.inkscape.org/namespaces/inkscape"
   xmlns:sodipodi="http://sodipodi.sourceforge.net/DTD/sodipodi-0.dtd"
   xmlns="http://www.w3.org/2000/svg"
   xmlns:svg="http://www.w3.org/2000/svg">
  <sodipodi:namedview
     id="namedview2"
     pagecolor="#505050"
     bordercolor="#eeeeee"
     borderopacity="1"
     inkscape:showpageshadow="0"
     inkscape:pageopacity="0"
     inkscape:pagecheckerboard="0"
     inkscape:deskcolor="#505050"
     inkscape:zoom="10.866894"
     inkscape:cx="80.657822"
     inkscape:cy="7.775911"
     inkscape:window-width="2560"
     inkscape:window-height="1372"
     inkscape:window-x="0"
     inkscape:window-y="40"
     inkscape:window-maximized="1"
     inkscape:current-layer="svg2" />
  <!-- svg-source:excalidraw -->
  <defs
     id="defs1">
    <style
       class="style-fonts"
       id="style1" />
  </defs>
  <g
     stroke-linecap="round"
     transform="translate(10 10) rotate(0 173.125 16.875)"
     id="g2"
     style="fill:#76ca3b;fill-opacity:1">
    <path
       d="m 8.44,0 c 110.22,0 220.44,0 329.37,0 5.63,0 8.44,2.81 8.44,8.44 0,5.65 0,11.3 0,16.87 0,5.63 -2.81,8.44 -8.44,8.44 -80.98,0 -161.95,0 -329.37,0 C 2.81,33.75 0,30.94 0,25.31 0,21.26 0,17.2 0,8.44 0,2.81 2.81,0 8.44,0"
       stroke="none"
       stroke-width="0"
       fill="#38d9a9"
       id="path1"
       style="display:inline;fill:#ffffff;fill-opacity:1" />
    <path
       d="M 8.44,0 C 80.16,0 151.88,0 337.81,0 M 8.44,0 c 79,0 158,0 329.37,0 m 0,0 c 5.63,0 8.44,2.81 8.44,8.44 M 337.81,0 c 5.63,0 8.44,2.81 8.44,8.44 m 0,0 c 0,4.51 0,9.01 0,16.87 m 0,-16.87 c 0,5.58 0,11.16 0,16.87 m 0,0 c 0,5.63 -2.81,8.44 -8.44,8.44 m 8.44,-8.44 c 0,5.63 -2.81,8.44 -8.44,8.44 m 0,0 c -102.63,0 -205.26,0 -329.37,0 m 329.37,0 c -108.97,0 -217.94,0 -329.37,0 m 0,0 C 2.81,33.75 0,30.94 0,25.31 m 8.44,8.44 C 2.81,33.75 0,30.94 0,25.31 m 0,0 C 0,19.07 0,12.83 0,8.44 M 0,25.31 C 0,20.74 0,16.16 0,8.44 m 0,0 C 0,2.81 2.81,0 8.44,0 M 0,8.44 C 0,2.81 2.81,0 8.44,0"
       stroke="transparent"
       stroke-width="4"
       fill="none"
       id="path2"
       style="display:inline;fill:#ffffff;fill-opacity:1" />
  </g>
</svg>
