<?xml version="1.0" encoding="UTF-8" standalone="no"?>
<svg
   version="1.1"
   viewBox="0 0 366.25 53.75"
   width="366.25"
   height="53.75"
   id="svg2"
   sodipodi:docname="healthBar.svg"
   inkscape:version="1.4.2 (ebf0e940d0, 2025-05-08)"
   xmlns:inkscape="http://www.inkscape.org/namespaces/inkscape"
   xmlns:sodipodi="http://sodipodi.sourceforge.net/DTD/sodipodi-0.dtd"
   xmlns="http://www.w3.org/2000/svg"
   xmlns:svg="http://www.w3.org/2000/svg">
  <sodipodi:namedview
     id="namedview2"
     pagecolor="#505050"
     bordercolor="#eeeeee"
     borderopacity="1"
     inkscape:showpageshadow="0"
     inkscape:pageopacity="0"
     inkscape:pagecheckerboard="0"
     inkscape:deskcolor="#505050"
     inkscape:zoom="2.7167235"
     inkscape:cx="183.125"
     inkscape:cy="27.054649"
     inkscape:window-width="1920"
     inkscape:window-height="1048"
     inkscape:window-x="0"
     inkscape:window-y="0"
     inkscape:window-maximized="1"
     inkscape:current-layer="svg2" />
  <!-- svg-source:excalidraw -->
  <defs
     id="defs1">
    <style
       class="style-fonts"
       id="style1" />
  </defs>
  <g
     stroke-linecap="round"
     transform="translate(10 10) rotate(0 173.125 16.875)"
     id="g2"
     style="fill:#76ca3b;fill-opacity:1">
    <path
       d="M8.44 0 C118.66 0, 228.88 0, 337.81 0 C343.44 0, 346.25 2.81, 346.25 8.44 C346.25 14.09, 346.25 19.74, 346.25 25.31 C346.25 30.94, 343.44 33.75, 337.81 33.75 C256.83 33.75, 175.86 33.75, 8.44 33.75 C2.81 33.75, 0 30.94, 0 25.31 C0 21.26, 0 17.2, 0 8.44 C0 2.81, 2.81 0, 8.44 0"
       stroke="none"
       stroke-width="0"
       fill="#38d9a9"
       id="path1"
       style="fill:#76ca3b;fill-opacity:1" />
    <path
       d="M8.44 0 C80.16 0, 151.88 0, 337.81 0 M8.44 0 C87.44 0, 166.44 0, 337.81 0 M337.81 0 C343.44 0, 346.25 2.81, 346.25 8.44 M337.81 0 C343.44 0, 346.25 2.81, 346.25 8.44 M346.25 8.44 C346.25 12.95, 346.25 17.45, 346.25 25.31 M346.25 8.44 C346.25 14.02, 346.25 19.6, 346.25 25.31 M346.25 25.31 C346.25 30.94, 343.44 33.75, 337.81 33.75 M346.25 25.31 C346.25 30.94, 343.44 33.75, 337.81 33.75 M337.81 33.75 C235.18 33.75, 132.55 33.75, 8.44 33.75 M337.81 33.75 C228.84 33.75, 119.87 33.75, 8.44 33.75 M8.44 33.75 C2.81 33.75, 0 30.94, 0 25.31 M8.44 33.75 C2.81 33.75, 0 30.94, 0 25.31 M0 25.31 C0 19.07, 0 12.83, 0 8.44 M0 25.31 C0 20.74, 0 16.16, 0 8.44 M0 8.44 C0 2.81, 2.81 0, 8.44 0 M0 8.44 C0 2.81, 2.81 0, 8.44 0"
       stroke="transparent"
       stroke-width="4"
       fill="none"
       id="path2"
       style="fill:#76ca3b;fill-opacity:1" />
  </g>
</svg>
