<?xml version="1.0" encoding="UTF-8" standalone="no"?>
<svg
   version="1.1"
   viewBox="0 0 370 57.5"
   width="370"
   height="57.5"
   id="svg2"
   sodipodi:docname="healthBarBG.svg"
   inkscape:version="1.4.2 (ebf0e940d0, 2025-05-08)"
   xmlns:inkscape="http://www.inkscape.org/namespaces/inkscape"
   xmlns:sodipodi="http://sodipodi.sourceforge.net/DTD/sodipodi-0.dtd"
   xmlns="http://www.w3.org/2000/svg"
   xmlns:svg="http://www.w3.org/2000/svg">
  <sodipodi:namedview
     id="namedview2"
     pagecolor="#505050"
     bordercolor="#eeeeee"
     borderopacity="1"
     inkscape:showpageshadow="0"
     inkscape:pageopacity="0"
     inkscape:pagecheckerboard="0"
     inkscape:deskcolor="#505050"
     inkscape:zoom="0.95077196"
     inkscape:cx="249.79702"
     inkscape:cy="82.564488"
     inkscape:window-width="1920"
     inkscape:window-height="1048"
     inkscape:window-x="0"
     inkscape:window-y="0"
     inkscape:window-maximized="1"
     inkscape:current-layer="g2" />
  <!-- svg-source:excalidraw -->
  <defs
     id="defs1">
    <style
       class="style-fonts"
       id="style1" />
  </defs>
  <g
     stroke-opacity="0.6"
     fill-opacity="0.6"
     stroke-linecap="round"
     transform="translate(10 10) rotate(0 175 18.75)"
     id="g2">
    <path
       d="M 9 0 C 120 0, 231 0, 341 0 C 347 0, 350 3, 350 9 C 350 16, 350 22, 350 28 C 350 34, 347 38, 341 38 C 259 38, 178 38, 9 38 C 3 38, 0 34, 0 28 C 0 24, 0 19, 0 9 C 0 3, 3 0, 9 0"
       stroke="none"
       stroke-width="0"
       fill="#1e1e1e"
       id="path1" />
    <path
       d="M 9 0 C 82 0, 154 0, 341 0 M 9 0 C 89 0, 168 0, 341 0 M 341 0 C 347 0, 350 3, 350 9 M 341 0 C 347 0, 350 3, 350 9 M 350 9 C 350 14, 350 19, 350 28 M 350 9 C 350 16, 350 22, 350 28 M 350 28 C 350 34, 347 38, 341 38 M 350 28 C 350 34, 347 38, 341 38 M 341 38 C 237 38, 134 38, 9 38 M 341 38 C 231 38, 121 38, 9 38 M 9 38 C 3 38, 0 34, 0 28 M 9 38 C 3 38, 0 34, 0 28 M 0 28 C 0 21, 0 14, 0 9 M 0 28 C 0 23, 0 18, 0 9 M 0 9 C 0 3, 3 0, 9 0 M 0 9 C 0 3, 3 0, 9 0"
       stroke="#1e1e1e"
       stroke-width="4"
       fill="none"
       id="path2"
       style="stroke:#1e1e1e;stroke-opacity:1" />
  </g>
</svg>
