<?xml version="1.0" encoding="UTF-8" standalone="no"?>
<svg
   version="1.1"
   viewBox="0 0 270 70"
   width="270"
   height="70"
   id="svg1"
   sodipodi:docname="healthBarBG.svg"
   inkscape:version="1.4.2 (ebf0e940d0, 2025-05-08)"
   xmlns:inkscape="http://www.inkscape.org/namespaces/inkscape"
   xmlns:sodipodi="http://sodipodi.sourceforge.net/DTD/sodipodi-0.dtd"
   xmlns="http://www.w3.org/2000/svg"
   xmlns:svg="http://www.w3.org/2000/svg">
  <sodipodi:namedview
     id="namedview1"
     pagecolor="#505050"
     bordercolor="#eeeeee"
     borderopacity="1"
     inkscape:showpageshadow="0"
     inkscape:pageopacity="0"
     inkscape:pagecheckerboard="0"
     inkscape:deskcolor="#505050"
     inkscape:zoom="3.6851852"
     inkscape:cx="135"
     inkscape:cy="99.994975"
     inkscape:window-width="1920"
     inkscape:window-height="1048"
     inkscape:window-x="0"
     inkscape:window-y="0"
     inkscape:window-maximized="1"
     inkscape:current-layer="svg1" />
  <!-- svg-source:excalidraw -->
  <defs
     id="defs1">
    <style
       class="style-fonts"
       id="style1" />
  </defs>
  <g
     stroke-linecap="round"
     transform="translate(10 10) rotate(0 125 25)"
     id="g1">
    <path
       d="M0 0 C94.86 0, 189.71 0, 250 0 M0 0 C55.45 0, 110.91 0, 250 0 M250 0 C250 16.85, 250 33.7, 250 50 M250 0 C250 12.09, 250 24.17, 250 50 M250 50 C194.77 50, 139.54 50, 0 50 M250 50 C191.17 50, 132.34 50, 0 50 M0 50 C0 31.45, 0 12.9, 0 0 M0 50 C0 34.55, 0 19.11, 0 0"
       stroke="#1e1e1e"
       stroke-width="4"
       fill="none"
       id="path1" />
  </g>
</svg>
