<svg version="1.1" xmlns="http://www.w3.org/2000/svg" viewBox="0 0 100 100" width="100" height="100">
  <!-- svg-source:excalidraw -->
  
  <defs>
    <style class="style-fonts">
      
    </style>
    
  </defs>
  <rect x="0" y="0" width="100" height="100" fill="#ffffff"></rect><g stroke-linecap="round" transform="translate(10 10) rotate(0 40 40)"><path d="M0 0 C17.42 0, 34.84 0, 80 0 M0 0 C19.19 0, 38.38 0, 80 0 M80 0 C80 27.22, 80 54.43, 80 80 M80 0 C80 22.1, 80 44.2, 80 80 M80 80 C52.1 80, 24.2 80, 0 80 M80 80 C52.24 80, 24.48 80, 0 80 M0 80 C0 62.49, 0 44.98, 0 0 M0 80 C0 48.82, 0 17.64, 0 0" stroke="#d0d1c4" stroke-width="2" fill="none"></path></g></svg>