<?xml version="1.0" encoding="UTF-8"?>
<svg version="1.1" xmlns="http://www.w3.org/2000/svg" width="32" height="32">
<path d="M0 0 C3.96 0 7.92 0 12 0 C12 0.66 12 1.32 12 2 C13.32 2 14.64 2 16 2 C16 2.66 16 3.32 16 4 C16.66 4 17.32 4 18 4 C18 5.32 18 6.64 18 8 C18.66 8 19.32 8 20 8 C20 11.96 20 15.92 20 20 C19.34 20 18.68 20 18 20 C18 21.32 18 22.64 18 24 C17.34 24 16.68 24 16 24 C16 24.66 16 25.32 16 26 C14.68 26 13.36 26 12 26 C12 26.66 12 27.32 12 28 C8.04 28 4.08 28 0 28 C0 27.34 0 26.68 0 26 C-1.32 26 -2.64 26 -4 26 C-4 25.34 -4 24.68 -4 24 C-4.66 24 -5.32 24 -6 24 C-6 22.68 -6 21.36 -6 20 C-6.66 20 -7.32 20 -8 20 C-8 16.04 -8 12.08 -8 8 C-7.34 8 -6.68 8 -6 8 C-6 6.68 -6 5.36 -6 4 C-5.34 4 -4.68 4 -4 4 C-4 3.34 -4 2.68 -4 2 C-2.68 2 -1.36 2 0 2 C0 1.34 0 0.68 0 0 Z M0 6 C0 6.66 0 7.32 0 8 C-0.66 8 -1.32 8 -2 8 C-2 11.96 -2 15.92 -2 20 C-1.34 20 -0.68 20 0 20 C0 20.66 0 21.32 0 22 C3.96 22 7.92 22 12 22 C12 21.34 12 20.68 12 20 C12.66 20 13.32 20 14 20 C14 16.04 14 12.08 14 8 C13.34 8 12.68 8 12 8 C12 7.34 12 6.68 12 6 C8.04 6 4.08 6 0 6 Z " fill="#3C3F40" transform="translate(10,2)"/>
<path d="M0 0 C3.96 0 7.92 0 12 0 C12 1.32 12 2.64 12 4 C8.04 4 4.08 4 0 4 C0 5.32 0 6.64 0 8 C-1.32 8 -2.64 8 -4 8 C-4 11.96 -4 15.92 -4 20 C-5.32 20 -6.64 20 -8 20 C-8 16.04 -8 12.08 -8 8 C-7.34 8 -6.68 8 -6 8 C-6 6.68 -6 5.36 -6 4 C-5.34 4 -4.68 4 -4 4 C-4 3.34 -4 2.68 -4 2 C-2.68 2 -1.36 2 0 2 C0 1.34 0 0.68 0 0 Z " fill="#8E989A" transform="translate(10,2)"/>
<path d="M0 0 C1.32 0 2.64 0 4 0 C4 0.66 4 1.32 4 2 C4.66 2 5.32 2 6 2 C6 5.96 6 9.92 6 14 C5.34 14 4.68 14 4 14 C4 11.36 4 8.72 4 6 C2.68 6 1.36 6 0 6 C0 5.34 0 4.68 0 4 C-3.96 4 -7.92 4 -12 4 C-12 3.34 -12 2.68 -12 2 C-8.04 2 -4.08 2 0 2 C0 1.34 0 0.68 0 0 Z " fill="#4C5556" transform="translate(22,4)"/>
<path d="M0 0 C1.32 0 2.64 0 4 0 C4 3.96 4 7.92 4 12 C2.68 12 1.36 12 0 12 C0 8.04 0 4.08 0 0 Z " fill="#869092" transform="translate(2,10)"/>
<path d="M0 0 C1.32 0 2.64 0 4 0 C4 1.98 4 3.96 4 6 C2.68 6 1.36 6 0 6 C0 4.02 0 2.04 0 0 Z " fill="#3F4445" transform="translate(22,22)"/>
</svg>
