<?xml version="1.0" encoding="UTF-8"?>
<svg version="1.1" xmlns="http://www.w3.org/2000/svg" width="44" height="44">
<path d="M0 0 C7.92 0 15.84 0 24 0 C24 0.66 24 1.32 24 2 C24.66 2 25.32 2 26 2 C26 3.32 26 4.64 26 6 C26.66 6 27.32 6 28 6 C28 7.32 28 8.64 28 10 C28.66 10 29.32 10 30 10 C30 11.32 30 12.64 30 14 C30.66 14 31.32 14 32 14 C32 15.32 32 16.64 32 18 C32.66 18 33.32 18 34 18 C34 19.32 34 20.64 34 22 C33.34 22 32.68 22 32 22 C32 23.32 32 24.64 32 26 C31.34 26 30.68 26 30 26 C30 27.32 30 28.64 30 30 C29.34 30 28.68 30 28 30 C28 31.32 28 32.64 28 34 C27.34 34 26.68 34 26 34 C26 35.32 26 36.64 26 38 C25.34 38 24.68 38 24 38 C24 38.66 24 39.32 24 40 C16.08 40 8.16 40 0 40 C0 39.34 0 38.68 0 38 C-0.66 38 -1.32 38 -2 38 C-2 36.68 -2 35.36 -2 34 C-2.66 34 -3.32 34 -4 34 C-4 32.68 -4 31.36 -4 30 C-4.66 30 -5.32 30 -6 30 C-6 28.68 -6 27.36 -6 26 C-6.66 26 -7.32 26 -8 26 C-8 24.68 -8 23.36 -8 22 C-8.66 22 -9.32 22 -10 22 C-10 20.68 -10 19.36 -10 18 C-9.34 18 -8.68 18 -8 18 C-8 16.68 -8 15.36 -8 14 C-7.34 14 -6.68 14 -6 14 C-6 12.68 -6 11.36 -6 10 C-5.34 10 -4.68 10 -4 10 C-4 8.68 -4 7.36 -4 6 C-3.34 6 -2.68 6 -2 6 C-2 4.68 -2 3.36 -2 2 C-1.34 2 -0.68 2 0 2 C0 1.34 0 0.68 0 0 Z M8 6 C8 7.32 8 8.64 8 10 C7.34 10 6.68 10 6 10 C6 10.66 6 11.32 6 12 C4.02 12 2.04 12 0 12 C0 12.66 0 13.32 0 14 C-0.66 14 -1.32 14 -2 14 C-2 14.66 -2 15.32 -2 16 C-1.34 16 -0.68 16 0 16 C0 16.66 0 17.32 0 18 C0.66 18 1.32 18 2 18 C2 19.32 2 20.64 2 22 C1.34 22 0.68 22 0 22 C0 22.66 0 23.32 0 24 C-0.66 24 -1.32 24 -2 24 C-2 24.66 -2 25.32 -2 26 C-1.34 26 -0.68 26 0 26 C0 26.66 0 27.32 0 28 C1.98 28 3.96 28 6 28 C6 28.66 6 29.32 6 30 C6.66 30 7.32 30 8 30 C8 31.32 8 32.64 8 34 C10.64 34 13.28 34 16 34 C16 32.68 16 31.36 16 30 C16.66 30 17.32 30 18 30 C18 29.34 18 28.68 18 28 C19.98 28 21.96 28 24 28 C24 27.34 24 26.68 24 26 C24.66 26 25.32 26 26 26 C26 25.34 26 24.68 26 24 C25.34 24 24.68 24 24 24 C24 23.34 24 22.68 24 22 C23.34 22 22.68 22 22 22 C22 20.68 22 19.36 22 18 C22.66 18 23.32 18 24 18 C24 17.34 24 16.68 24 16 C24.66 16 25.32 16 26 16 C26 15.34 26 14.68 26 14 C25.34 14 24.68 14 24 14 C24 13.34 24 12.68 24 12 C22.02 12 20.04 12 18 12 C18 11.34 18 10.68 18 10 C17.34 10 16.68 10 16 10 C16 8.68 16 7.36 16 6 C13.36 6 10.72 6 8 6 Z " fill="#644A3F" transform="translate(10,2)"/>
<path d="M0 0 C7.92 0 15.84 0 24 0 C24 1.98 24 3.96 24 6 C23.34 6 22.68 6 22 6 C22 5.34 22 4.68 22 4 C15.4 4 8.8 4 2 4 C2 4.66 2 5.32 2 6 C3.32 6 4.64 6 6 6 C6 7.98 6 9.96 6 12 C4.02 12 2.04 12 0 12 C0 12.66 0 13.32 0 14 C-0.66 14 -1.32 14 -2 14 C-2 14.66 -2 15.32 -2 16 C-1.34 16 -0.68 16 0 16 C0 16.66 0 17.32 0 18 C0.66 18 1.32 18 2 18 C2 19.32 2 20.64 2 22 C0.02 22 -1.96 22 -4 22 C-4 20.68 -4 19.36 -4 18 C-4.66 18 -5.32 18 -6 18 C-6 15.36 -6 12.72 -6 10 C-5.34 10 -4.68 10 -4 10 C-4 8.68 -4 7.36 -4 6 C-3.34 6 -2.68 6 -2 6 C-2 4.68 -2 3.36 -2 2 C-1.34 2 -0.68 2 0 2 C0 1.34 0 0.68 0 0 Z " fill="#95518A" transform="translate(10,2)"/>
<path d="M0 0 C0.66 0 1.32 0 2 0 C2 1.32 2 2.64 2 4 C2.66 4 3.32 4 4 4 C4 5.32 4 6.64 4 8 C4.66 8 5.32 8 6 8 C6 10.64 6 13.28 6 16 C5.34 16 4.68 16 4 16 C4 17.32 4 18.64 4 20 C2.02 20 0.04 20 -2 20 C-2 18.68 -2 17.36 -2 16 C-1.34 16 -0.68 16 0 16 C0 15.34 0 14.68 0 14 C0.66 14 1.32 14 2 14 C2 13.34 2 12.68 2 12 C1.34 12 0.68 12 0 12 C0 11.34 0 10.68 0 10 C-1.98 10 -3.96 10 -6 10 C-6 9.34 -6 8.68 -6 8 C-6.66 8 -7.32 8 -8 8 C-8 6.68 -8 5.36 -8 4 C-10.64 4 -13.28 4 -16 4 C-16 5.32 -16 6.64 -16 8 C-16.66 8 -17.32 8 -18 8 C-18 6.68 -18 5.36 -18 4 C-19.32 4 -20.64 4 -22 4 C-22 3.34 -22 2.68 -22 2 C-15.4 2 -8.8 2 -2 2 C-2 2.66 -2 3.32 -2 4 C-1.34 4 -0.68 4 0 4 C0 2.68 0 1.36 0 0 Z " fill="#3F2327" transform="translate(34,4)"/>
<path d="M0 0 C0.66 0 1.32 0 2 0 C2 1.32 2 2.64 2 4 C2.66 4 3.32 4 4 4 C4 5.32 4 6.64 4 8 C5.32 8 6.64 8 8 8 C8 8.66 8 9.32 8 10 C7.34 10 6.68 10 6 10 C6 10.66 6 11.32 6 12 C6.66 12 7.32 12 8 12 C8 12.66 8 13.32 8 14 C9.98 14 11.96 14 14 14 C14 15.98 14 17.96 14 20 C12.68 20 11.36 20 10 20 C10 20.66 10 21.32 10 22 C10.66 22 11.32 22 12 22 C12 22.66 12 23.32 12 24 C10.02 24 8.04 24 6 24 C6 22.68 6 21.36 6 20 C5.34 20 4.68 20 4 20 C4 18.68 4 17.36 4 16 C3.34 16 2.68 16 2 16 C2 14.68 2 13.36 2 12 C1.34 12 0.68 12 0 12 C0 10.68 0 9.36 0 8 C-0.66 8 -1.32 8 -2 8 C-2 6.68 -2 5.36 -2 4 C-1.34 4 -0.68 4 0 4 C0 2.68 0 1.36 0 0 Z " fill="#612761" transform="translate(2,16)"/>
<path d="M0 0 C0.66 0 1.32 0 2 0 C2 1.32 2 2.64 2 4 C4.64 4 7.28 4 10 4 C10 2.68 10 1.36 10 0 C10.66 0 11.32 0 12 0 C12 1.32 12 2.64 12 4 C13.32 4 14.64 4 16 4 C16 4.66 16 5.32 16 6 C11.38 6 6.76 6 2 6 C2 6.66 2 7.32 2 8 C7.28 8 12.56 8 18 8 C18 8.66 18 9.32 18 10 C10.08 10 2.16 10 -6 10 C-6 9.34 -6 8.68 -6 8 C-4.68 8 -3.36 8 -2 8 C-2 7.34 -2 6.68 -2 6 C-2.66 6 -3.32 6 -4 6 C-4 5.34 -4 4.68 -4 4 C-2.68 4 -1.36 4 0 4 C0 2.68 0 1.36 0 0 Z " fill="#2A1521" transform="translate(16,32)"/>
<path d="M0 0 C7.92 0 15.84 0 24 0 C24 1.98 24 3.96 24 6 C23.34 6 22.68 6 22 6 C22 5.34 22 4.68 22 4 C15.4 4 8.8 4 2 4 C2 4.66 2 5.32 2 6 C1.34 6 0.68 6 0 6 C0 4.02 0 2.04 0 0 Z " fill="#8E498F" transform="translate(10,2)"/>
<path d="M0 0 C1.32 0 2.64 0 4 0 C4 2.64 4 5.28 4 8 C3.34 8 2.68 8 2 8 C2 9.32 2 10.64 2 12 C0.02 12 -1.96 12 -4 12 C-4 10.68 -4 9.36 -4 8 C-3.34 8 -2.68 8 -2 8 C-2 7.34 -2 6.68 -2 6 C-1.34 6 -0.68 6 0 6 C0 4.02 0 2.04 0 0 Z " fill="#5B2453" transform="translate(36,12)"/>
<path d="M0 0 C0.66 0 1.32 0 2 0 C2 1.32 2 2.64 2 4 C3.98 4 5.96 4 8 4 C8 5.32 8 6.64 8 8 C4.7 8 1.4 8 -2 8 C-2 6.68 -2 5.36 -2 4 C-1.34 4 -0.68 4 0 4 C0 2.68 0 1.36 0 0 Z " fill="#AA6E8B" transform="translate(8,4)"/>
<path d="M0 0 C0.66 0 1.32 0 2 0 C2 0.66 2 1.32 2 2 C3.98 2 5.96 2 8 2 C8 3.98 8 5.96 8 8 C6.02 8 4.04 8 2 8 C2 6.68 2 5.36 2 4 C1.34 4 0.68 4 0 4 C0 2.68 0 1.36 0 0 Z " fill="#856948" transform="translate(8,28)"/>
<path d="M0 0 C0.66 0 1.32 0 2 0 C2 1.32 2 2.64 2 4 C2.66 4 3.32 4 4 4 C4 5.32 4 6.64 4 8 C3.34 8 2.68 8 2 8 C2 9.32 2 10.64 2 12 C1.34 12 0.68 12 0 12 C0 10.68 0 9.36 0 8 C-0.66 8 -1.32 8 -2 8 C-2 6.68 -2 5.36 -2 4 C-1.34 4 -0.68 4 0 4 C0 2.68 0 1.36 0 0 Z " fill="#230D2A" transform="translate(40,16)"/>
<path d="M0 0 C0.66 0 1.32 0 2 0 C2 1.32 2 2.64 2 4 C2.66 4 3.32 4 4 4 C4 5.32 4 6.64 4 8 C3.34 8 2.68 8 2 8 C2 9.32 2 10.64 2 12 C1.34 12 0.68 12 0 12 C0 10.68 0 9.36 0 8 C-0.66 8 -1.32 8 -2 8 C-2 6.68 -2 5.36 -2 4 C-1.34 4 -0.68 4 0 4 C0 2.68 0 1.36 0 0 Z " fill="#36143B" transform="translate(34,4)"/>
<path d="M0 0 C0.66 0 1.32 0 2 0 C2 1.32 2 2.64 2 4 C-3.28 4 -8.56 4 -14 4 C-14 3.34 -14 2.68 -14 2 C-9.38 2 -4.76 2 0 2 C0 1.34 0 0.68 0 0 Z " fill="#612565" transform="translate(32,36)"/>
<path d="M0 0 C1.98 0 3.96 0 6 0 C6 2.64 6 5.28 6 8 C4.68 8 3.36 8 2 8 C2 6.02 2 4.04 2 2 C1.34 2 0.68 2 0 2 C0 1.34 0 0.68 0 0 Z " fill="#4D2046" transform="translate(34,24)"/>
<path d="M0 0 C1.32 0 2.64 0 4 0 C4 1.32 4 2.64 4 4 C4.66 4 5.32 4 6 4 C6 4.66 6 5.32 6 6 C4.02 6 2.04 6 0 6 C0 4.02 0 2.04 0 0 Z " fill="#C29E60" transform="translate(28,8)"/>
<path d="M0 0 C3.3 0 6.6 0 10 0 C10 0.66 10 1.32 10 2 C8.68 2 7.36 2 6 2 C6 3.32 6 4.64 6 6 C5.34 6 4.68 6 4 6 C4 4.68 4 3.36 4 2 C2.68 2 1.36 2 0 2 C0 1.34 0 0.68 0 0 Z " fill="#69344F" transform="translate(12,6)"/>
<path d="M0 0 C1.98 0 3.96 0 6 0 C6 1.32 6 2.64 6 4 C4.02 4 2.04 4 0 4 C0 2.68 0 1.36 0 0 Z " fill="#CDAB6B" transform="translate(32,20)"/>
<path d="M0 0 C1.98 0 3.96 0 6 0 C6 1.32 6 2.64 6 4 C4.02 4 2.04 4 0 4 C0 2.68 0 1.36 0 0 Z " fill="#CDAB6B" transform="translate(6,20)"/>
<path d="M0 0 C2.64 0 5.28 0 8 0 C8 0.66 8 1.32 8 2 C6.02 2 4.04 2 2 2 C2 2.66 2 3.32 2 4 C1.34 4 0.68 4 0 4 C0 2.68 0 1.36 0 0 Z " fill="#603D24" transform="translate(8,12)"/>
<path d="M0 0 C2.64 0 5.28 0 8 0 C8 1.32 8 2.64 8 4 C7.34 4 6.68 4 6 4 C6 3.34 6 2.68 6 2 C4.02 2 2.04 2 0 2 C0 1.34 0 0.68 0 0 Z " fill="#C24EC1" transform="translate(26,4)"/>
</svg>
