<?xml version="1.0" encoding="UTF-8"?>
<svg version="1.1" xmlns="http://www.w3.org/2000/svg" width="40" height="40">
<path d="M0 0 C5.28 0 10.56 0 16 0 C16 0.66 16 1.32 16 2 C16.66 2 17.32 2 18 2 C18 2.66 18 3.32 18 4 C18.66 4 19.32 4 20 4 C20 4.66 20 5.32 20 6 C20.66 6 21.32 6 22 6 C22 6.66 22 7.32 22 8 C22.66 8 23.32 8 24 8 C24 8.66 24 9.32 24 10 C24.66 10 25.32 10 26 10 C26 10.66 26 11.32 26 12 C26.66 12 27.32 12 28 12 C28 17.28 28 22.56 28 28 C27.34 28 26.68 28 26 28 C26 28.66 26 29.32 26 30 C25.34 30 24.68 30 24 30 C24 30.66 24 31.32 24 32 C23.34 32 22.68 32 22 32 C22 32.66 22 33.32 22 34 C21.34 34 20.68 34 20 34 C20 34.66 20 35.32 20 36 C19.34 36 18.68 36 18 36 C18 36.66 18 37.32 18 38 C17.34 38 16.68 38 16 38 C16 38.66 16 39.32 16 40 C10.72 40 5.44 40 0 40 C0 39.34 0 38.68 0 38 C-0.66 38 -1.32 38 -2 38 C-2 37.34 -2 36.68 -2 36 C-2.66 36 -3.32 36 -4 36 C-4 35.34 -4 34.68 -4 34 C-4.66 34 -5.32 34 -6 34 C-6 33.34 -6 32.68 -6 32 C-6.66 32 -7.32 32 -8 32 C-8 31.34 -8 30.68 -8 30 C-8.66 30 -9.32 30 -10 30 C-10 29.34 -10 28.68 -10 28 C-10.66 28 -11.32 28 -12 28 C-12 22.72 -12 17.44 -12 12 C-11.34 12 -10.68 12 -10 12 C-10 11.34 -10 10.68 -10 10 C-9.34 10 -8.68 10 -8 10 C-8 9.34 -8 8.68 -8 8 C-7.34 8 -6.68 8 -6 8 C-6 7.34 -6 6.68 -6 6 C-5.34 6 -4.68 6 -4 6 C-4 5.34 -4 4.68 -4 4 C-3.34 4 -2.68 4 -2 4 C-2 3.34 -2 2.68 -2 2 C-1.34 2 -0.68 2 0 2 C0 1.34 0 0.68 0 0 Z M6 6 C6 7.32 6 8.64 6 10 C5.34 10 4.68 10 4 10 C4 10.66 4 11.32 4 12 C2.68 12 1.36 12 0 12 C0 13.32 0 14.64 0 16 C-0.66 16 -1.32 16 -2 16 C-2 16.66 -2 17.32 -2 18 C-3.32 18 -4.64 18 -6 18 C-6 19.32 -6 20.64 -6 22 C-4.68 22 -3.36 22 -2 22 C-2 22.66 -2 23.32 -2 24 C-1.34 24 -0.68 24 0 24 C0 25.32 0 26.64 0 28 C1.32 28 2.64 28 4 28 C4 28.66 4 29.32 4 30 C4.66 30 5.32 30 6 30 C6 31.32 6 32.64 6 34 C7.32 34 8.64 34 10 34 C10 32.68 10 31.36 10 30 C10.66 30 11.32 30 12 30 C12 29.34 12 28.68 12 28 C13.32 28 14.64 28 16 28 C16 26.68 16 25.36 16 24 C16.66 24 17.32 24 18 24 C18 23.34 18 22.68 18 22 C19.32 22 20.64 22 22 22 C22 20.68 22 19.36 22 18 C20.68 18 19.36 18 18 18 C18 17.34 18 16.68 18 16 C17.34 16 16.68 16 16 16 C16 14.68 16 13.36 16 12 C14.68 12 13.36 12 12 12 C12 11.34 12 10.68 12 10 C11.34 10 10.68 10 10 10 C10 8.68 10 7.36 10 6 C8.68 6 7.36 6 6 6 Z M-2 10 C-2 10.66 -2 11.32 -2 12 C-1.34 12 -0.68 12 0 12 C0 11.34 0 10.68 0 10 C-0.66 10 -1.32 10 -2 10 Z M16 10 C16 10.66 16 11.32 16 12 C16.66 12 17.32 12 18 12 C18 11.34 18 10.68 18 10 C17.34 10 16.68 10 16 10 Z M-2 28 C-2 28.66 -2 29.32 -2 30 C-1.34 30 -0.68 30 0 30 C0 29.34 0 28.68 0 28 C-0.66 28 -1.32 28 -2 28 Z M16 28 C16 28.66 16 29.32 16 30 C16.66 30 17.32 30 18 30 C18 29.34 18 28.68 18 28 C17.34 28 16.68 28 16 28 Z " fill="#411646" transform="translate(12,0)"/>
<path d="M0 0 C0.66 0 1.32 0 2 0 C2 1.32 2 2.64 2 4 C3.32 4 4.64 4 6 4 C6 4.66 6 5.32 6 6 C4.68 6 3.36 6 2 6 C2 7.32 2 8.64 2 10 C3.32 10 4.64 10 6 10 C6 10.66 6 11.32 6 12 C6.66 12 7.32 12 8 12 C8 13.32 8 14.64 8 16 C9.32 16 10.64 16 12 16 C12 16.66 12 17.32 12 18 C12.66 18 13.32 18 14 18 C14 19.32 14 20.64 14 22 C15.32 22 16.64 22 18 22 C18 20.68 18 19.36 18 18 C18.66 18 19.32 18 20 18 C20 17.34 20 16.68 20 16 C21.32 16 22.64 16 24 16 C24 17.32 24 18.64 24 20 C24.66 20 25.32 20 26 20 C26 21.98 26 23.96 26 26 C25.34 26 24.68 26 24 26 C24 26.66 24 27.32 24 28 C18.72 28 13.44 28 8 28 C8 27.34 8 26.68 8 26 C7.34 26 6.68 26 6 26 C6 25.34 6 24.68 6 24 C5.34 24 4.68 24 4 24 C4 23.34 4 22.68 4 22 C3.34 22 2.68 22 2 22 C2 21.34 2 20.68 2 20 C1.34 20 0.68 20 0 20 C0 19.34 0 18.68 0 18 C-0.66 18 -1.32 18 -2 18 C-2 17.34 -2 16.68 -2 16 C-1.34 16 -0.68 16 0 16 C0 10.72 0 5.44 0 0 Z M6 16 C6 16.66 6 17.32 6 18 C6.66 18 7.32 18 8 18 C8 17.34 8 16.68 8 16 C7.34 16 6.68 16 6 16 Z " fill="#3D1839" transform="translate(4,12)"/>
<path d="M0 0 C3.96 0 7.92 0 12 0 C12 0.66 12 1.32 12 2 C8.7 2 5.4 2 2 2 C2 2.66 2 3.32 2 4 C3.32 4 4.64 4 6 4 C6 5.98 6 7.96 6 10 C4.68 10 3.36 10 2 10 C2 11.32 2 12.64 2 14 C0.02 14 -1.96 14 -4 14 C-4 12.68 -4 11.36 -4 10 C-4.66 10 -5.32 10 -6 10 C-6 15.28 -6 20.56 -6 26 C-7.32 26 -8.64 26 -10 26 C-10 20.72 -10 15.44 -10 10 C-9.34 10 -8.68 10 -8 10 C-8 9.34 -8 8.68 -8 8 C-7.34 8 -6.68 8 -6 8 C-6 7.34 -6 6.68 -6 6 C-5.34 6 -4.68 6 -4 6 C-4 5.34 -4 4.68 -4 4 C-3.34 4 -2.68 4 -2 4 C-2 3.34 -2 2.68 -2 2 C-1.34 2 -0.68 2 0 2 C0 1.34 0 0.68 0 0 Z M0 8 C0 8.66 0 9.32 0 10 C0.66 10 1.32 10 2 10 C2 9.34 2 8.68 2 8 C1.34 8 0.68 8 0 8 Z " fill="#853855" transform="translate(10,2)"/>
<path d="M0 0 C0.66 0 1.32 0 2 0 C2 1.32 2 2.64 2 4 C3.32 4 4.64 4 6 4 C6 4.66 6 5.32 6 6 C4.68 6 3.36 6 2 6 C2 7.32 2 8.64 2 10 C3.32 10 4.64 10 6 10 C6 10.66 6 11.32 6 12 C6.66 12 7.32 12 8 12 C8 13.32 8 14.64 8 16 C9.32 16 10.64 16 12 16 C12 16.66 12 17.32 12 18 C12.66 18 13.32 18 14 18 C14 19.32 14 20.64 14 22 C11.36 22 8.72 22 6 22 C6 21.34 6 20.68 6 20 C5.34 20 4.68 20 4 20 C4 19.34 4 18.68 4 18 C3.34 18 2.68 18 2 18 C2 17.34 2 16.68 2 16 C1.34 16 0.68 16 0 16 C0 10.72 0 5.44 0 0 Z M6 16 C6 16.66 6 17.32 6 18 C6.66 18 7.32 18 8 18 C8 17.34 8 16.68 8 16 C7.34 16 6.68 16 6 16 Z " fill="#4E2012" transform="translate(4,12)"/>
<path d="M0 0 C0.66 0 1.32 0 2 0 C2 0.66 2 1.32 2 2 C2.66 2 3.32 2 4 2 C4 2.66 4 3.32 4 4 C4.66 4 5.32 4 6 4 C6 9.28 6 14.56 6 20 C3.36 20 0.72 20 -2 20 C-2 18.68 -2 17.36 -2 16 C-1.34 16 -0.68 16 0 16 C0 15.34 0 14.68 0 14 C1.32 14 2.64 14 4 14 C4 12.68 4 11.36 4 10 C2.68 10 1.36 10 0 10 C0 9.34 0 8.68 0 8 C-0.66 8 -1.32 8 -2 8 C-2 6.68 -2 5.36 -2 4 C-1.34 4 -0.68 4 0 4 C0 2.68 0 1.36 0 0 Z " fill="#441E16" transform="translate(30,8)"/>
<path d="M0 0 C5.28 0 10.56 0 16 0 C16 1.32 16 2.64 16 4 C14.68 4 13.36 4 12 4 C12 4.66 12 5.32 12 6 C13.32 6 14.64 6 16 6 C16 7.98 16 9.96 16 12 C14.68 12 13.36 12 12 12 C12 11.34 12 10.68 12 10 C11.34 10 10.68 10 10 10 C10 8.68 10 7.36 10 6 C8.68 6 7.36 6 6 6 C6 7.32 6 8.64 6 10 C5.34 10 4.68 10 4 10 C4 8.68 4 7.36 4 6 C2.68 6 1.36 6 0 6 C0 5.34 0 4.68 0 4 C3.3 4 6.6 4 10 4 C10 3.34 10 2.68 10 2 C6.7 2 3.4 2 0 2 C0 1.34 0 0.68 0 0 Z " fill="#602A56" transform="translate(12,0)"/>
<path d="M0 0 C1.32 0 2.64 0 4 0 C4 0.66 4 1.32 4 2 C4.66 2 5.32 2 6 2 C6 2.66 6 3.32 6 4 C6.66 4 7.32 4 8 4 C8 4.66 8 5.32 8 6 C11.96 6 15.92 6 20 6 C20 4.68 20 3.36 20 2 C20.66 2 21.32 2 22 2 C22 3.32 22 4.64 22 6 C23.32 6 24.64 6 26 6 C26 6.66 26 7.32 26 8 C20.72 8 15.44 8 10 8 C10 8.66 10 9.32 10 10 C9.34 10 8.68 10 8 10 C8 9.34 8 8.68 8 8 C7.34 8 6.68 8 6 8 C6 7.34 6 6.68 6 6 C5.34 6 4.68 6 4 6 C4 5.34 4 4.68 4 4 C3.34 4 2.68 4 2 4 C2 3.34 2 2.68 2 2 C1.34 2 0.68 2 0 2 C0 1.34 0 0.68 0 0 Z " fill="#2D111B" transform="translate(2,28)"/>
<path d="M0 0 C1.32 0 2.64 0 4 0 C4 5.28 4 10.56 4 16 C2.68 16 1.36 16 0 16 C0 10.72 0 5.44 0 0 Z " fill="#914492" transform="translate(0,12)"/>
<path d="M0 0 C0.66 0 1.32 0 2 0 C2 0.66 2 1.32 2 2 C2.66 2 3.32 2 4 2 C4 2.66 4 3.32 4 4 C4.66 4 5.32 4 6 4 C6 4.66 6 5.32 6 6 C6.66 6 7.32 6 8 6 C8 6.66 8 7.32 8 8 C8.66 8 9.32 8 10 8 C10 8.66 10 9.32 10 10 C8.68 10 7.36 10 6 10 C6 9.34 6 8.68 6 8 C5.34 8 4.68 8 4 8 C4 7.34 4 6.68 4 6 C3.34 6 2.68 6 2 6 C2 6.66 2 7.32 2 8 C1.34 8 0.68 8 0 8 C0 6.68 0 5.36 0 4 C-1.32 4 -2.64 4 -4 4 C-4 3.34 -4 2.68 -4 2 C-2.68 2 -1.36 2 0 2 C0 1.34 0 0.68 0 0 Z " fill="#4C1E49" transform="translate(28,2)"/>
<path d="M0 0 C2.64 0 5.28 0 8 0 C8 0.66 8 1.32 8 2 C7.34 2 6.68 2 6 2 C6 2.66 6 3.32 6 4 C5.34 4 4.68 4 4 4 C4 4.66 4 5.32 4 6 C3.34 6 2.68 6 2 6 C2 6.66 2 7.32 2 8 C1.34 8 0.68 8 0 8 C0 6.68 0 5.36 0 4 C-0.66 4 -1.32 4 -2 4 C-2 3.34 -2 2.68 -2 2 C-1.34 2 -0.68 2 0 2 C0 1.34 0 0.68 0 0 Z " fill="#391C2E" transform="translate(30,28)"/>
<path d="M0 0 C1.32 0 2.64 0 4 0 C4 0.66 4 1.32 4 2 C4.66 2 5.32 2 6 2 C6 3.32 6 4.64 6 6 C4.02 6 2.04 6 0 6 C0 4.02 0 2.04 0 0 Z " fill="#BD975A" transform="translate(12,28)"/>
<path d="M0 0 C0.66 0 1.32 0 2 0 C2 1.32 2 2.64 2 4 C3.32 4 4.64 4 6 4 C6 4.66 6 5.32 6 6 C4.68 6 3.36 6 2 6 C2 7.32 2 8.64 2 10 C1.34 10 0.68 10 0 10 C0 6.7 0 3.4 0 0 Z " fill="#4F2B36" transform="translate(4,12)"/>
<path d="M0 0 C3.96 0 7.92 0 12 0 C12 0.66 12 1.32 12 2 C8.7 2 5.4 2 2 2 C2 2.66 2 3.32 2 4 C1.34 4 0.68 4 0 4 C0 2.68 0 1.36 0 0 Z " fill="#D172CE" transform="translate(10,2)"/>
<path d="M0 0 C1.32 0 2.64 0 4 0 C4 0.66 4 1.32 4 2 C4.66 2 5.32 2 6 2 C6 2.66 6 3.32 6 4 C6.66 4 7.32 4 8 4 C8 4.66 8 5.32 8 6 C6.68 6 5.36 6 4 6 C4 5.34 4 4.68 4 4 C3.34 4 2.68 4 2 4 C2 3.34 2 2.68 2 2 C1.34 2 0.68 2 0 2 C0 1.34 0 0.68 0 0 Z " fill="#5A1D5D" transform="translate(2,28)"/>
<path d="M0 0 C1.98 0 3.96 0 6 0 C6 1.32 6 2.64 6 4 C4.02 4 2.04 4 0 4 C0 2.68 0 1.36 0 0 Z " fill="#CDAB6B" transform="translate(28,24)"/>
<path d="M0 0 C1.98 0 3.96 0 6 0 C6 1.32 6 2.64 6 4 C4.02 4 2.04 4 0 4 C0 2.68 0 1.36 0 0 Z " fill="#CDAB6B" transform="translate(6,12)"/>
<path d="M0 0 C1.32 0 2.64 0 4 0 C4 1.98 4 3.96 4 6 C2.68 6 1.36 6 0 6 C0 4.02 0 2.04 0 0 Z " fill="#CDAB6B" transform="translate(24,6)"/>
<path d="M0 0 C2.64 0 5.28 0 8 0 C8 0.66 8 1.32 8 2 C7.34 2 6.68 2 6 2 C6 3.32 6 4.64 6 6 C5.34 6 4.68 6 4 6 C4 4.68 4 3.36 4 2 C2.68 2 1.36 2 0 2 C0 1.34 0 0.68 0 0 Z " fill="#622633" transform="translate(12,4)"/>
<path d="M0 0 C1.32 0 2.64 0 4 0 C4 0.66 4 1.32 4 2 C4.66 2 5.32 2 6 2 C6 2.66 6 3.32 6 4 C5.34 4 4.68 4 4 4 C4 4.66 4 5.32 4 6 C3.34 6 2.68 6 2 6 C2 4.68 2 3.36 2 2 C1.34 2 0.68 2 0 2 C0 1.34 0 0.68 0 0 Z " fill="#321221" transform="translate(28,30)"/>
<path d="M0 0 C1.32 0 2.64 0 4 0 C4 1.32 4 2.64 4 4 C3.34 4 2.68 4 2 4 C2 4.66 2 5.32 2 6 C1.34 6 0.68 6 0 6 C0 4.02 0 2.04 0 0 Z " fill="#D49E46" transform="translate(24,28)"/>
<path d="M0 0 C1.98 0 3.96 0 6 0 C6 1.32 6 2.64 6 4 C4.68 4 3.36 4 2 4 C2 3.34 2 2.68 2 2 C1.34 2 0.68 2 0 2 C0 1.34 0 0.68 0 0 Z " fill="#D49E46" transform="translate(6,24)"/>
<path d="M0 0 C1.32 0 2.64 0 4 0 C4 0.66 4 1.32 4 2 C4.66 2 5.32 2 6 2 C6 2.66 6 3.32 6 4 C4.02 4 2.04 4 0 4 C0 2.68 0 1.36 0 0 Z " fill="#D49E46" transform="translate(28,12)"/>
<path d="M0 0 C1.32 0 2.64 0 4 0 C4 1.32 4 2.64 4 4 C2.02 4 0.04 4 -2 4 C-2 3.34 -2 2.68 -2 2 C-1.34 2 -0.68 2 0 2 C0 1.34 0 0.68 0 0 Z " fill="#964998" transform="translate(4,8)"/>
<path d="M0 0 C0.66 0 1.32 0 2 0 C2 1.98 2 3.96 2 6 C0.68 6 -0.64 6 -2 6 C-2 4.68 -2 3.36 -2 2 C-1.34 2 -0.68 2 0 2 C0 1.34 0 0.68 0 0 Z " fill="#D49E46" transform="translate(14,6)"/>
</svg>
