<?xml version="1.0" encoding="UTF-8"?>
<svg version="1.1" xmlns="http://www.w3.org/2000/svg" width="36" height="36">
<path d="M0 0 C7.92 0 15.84 0 24 0 C24 0.66 24 1.32 24 2 C24.66 2 25.32 2 26 2 C26 2.66 26 3.32 26 4 C26.66 4 27.32 4 28 4 C28 4.66 28 5.32 28 6 C28.66 6 29.32 6 30 6 C30 13.92 30 21.84 30 30 C29.34 30 28.68 30 28 30 C28 30.66 28 31.32 28 32 C27.34 32 26.68 32 26 32 C26 32.66 26 33.32 26 34 C25.34 34 24.68 34 24 34 C24 34.66 24 35.32 24 36 C16.08 36 8.16 36 0 36 C0 35.34 0 34.68 0 34 C-0.66 34 -1.32 34 -2 34 C-2 33.34 -2 32.68 -2 32 C-2.66 32 -3.32 32 -4 32 C-4 31.34 -4 30.68 -4 30 C-4.66 30 -5.32 30 -6 30 C-6 22.08 -6 14.16 -6 6 C-5.34 6 -4.68 6 -4 6 C-4 5.34 -4 4.68 -4 4 C-3.34 4 -2.68 4 -2 4 C-2 3.34 -2 2.68 -2 2 C-1.34 2 -0.68 2 0 2 C0 1.34 0 0.68 0 0 Z M6 6 C6 7.32 6 8.64 6 10 C5.34 10 4.68 10 4 10 C4 10.66 4 11.32 4 12 C2.68 12 1.36 12 0 12 C0 15.96 0 19.92 0 24 C1.32 24 2.64 24 4 24 C4 24.66 4 25.32 4 26 C4.66 26 5.32 26 6 26 C6 27.32 6 28.64 6 30 C9.96 30 13.92 30 18 30 C18 28.68 18 27.36 18 26 C18.66 26 19.32 26 20 26 C20 25.34 20 24.68 20 24 C21.32 24 22.64 24 24 24 C24 20.04 24 16.08 24 12 C22.68 12 21.36 12 20 12 C20 11.34 20 10.68 20 10 C19.34 10 18.68 10 18 10 C18 8.68 18 7.36 18 6 C14.04 6 10.08 6 6 6 Z " fill="#422539" transform="translate(6,0)"/>
<path d="M0 0 C7.92 0 15.84 0 24 0 C24 1.32 24 2.64 24 4 C16.08 4 8.16 4 0 4 C0 4.66 0 5.32 0 6 C1.98 6 3.96 6 6 6 C6 7.32 6 8.64 6 10 C5.34 10 4.68 10 4 10 C4 10.66 4 11.32 4 12 C2.68 12 1.36 12 0 12 C0 15.96 0 19.92 0 24 C1.32 24 2.64 24 4 24 C4 24.66 4 25.32 4 26 C4.66 26 5.32 26 6 26 C6 27.32 6 28.64 6 30 C3.36 30 0.72 30 -2 30 C-2 28.68 -2 27.36 -2 26 C-2.66 26 -3.32 26 -4 26 C-4 24.02 -4 22.04 -4 20 C-4.66 20 -5.32 20 -6 20 C-6 15.38 -6 10.76 -6 6 C-5.34 6 -4.68 6 -4 6 C-4 5.34 -4 4.68 -4 4 C-3.34 4 -2.68 4 -2 4 C-2 3.34 -2 2.68 -2 2 C-1.34 2 -0.68 2 0 2 C0 1.34 0 0.68 0 0 Z " fill="#9D4F9E" transform="translate(6,0)"/>
<path d="M0 0 C0.66 0 1.32 0 2 0 C2 0.66 2 1.32 2 2 C2.66 2 3.32 2 4 2 C4 2.66 4 3.32 4 4 C4.66 4 5.32 4 6 4 C6 11.92 6 19.84 6 28 C4.68 28 3.36 28 2 28 C2 20.08 2 12.16 2 4 C0.02 4 -1.96 4 -4 4 C-4 5.32 -4 6.64 -4 8 C-4.66 8 -5.32 8 -6 8 C-6 6.68 -6 5.36 -6 4 C-11.94 4 -17.88 4 -24 4 C-24 3.34 -24 2.68 -24 2 C-16.08 2 -8.16 2 0 2 C0 1.34 0 0.68 0 0 Z " fill="#3E193E" transform="translate(30,2)"/>
<path d="M0 0 C2.64 0 5.28 0 8 0 C8 1.32 8 2.64 8 4 C7.34 4 6.68 4 6 4 C6 4.66 6 5.32 6 6 C4.68 6 3.36 6 2 6 C2 9.96 2 13.92 2 18 C3.32 18 4.64 18 6 18 C6 18.66 6 19.32 6 20 C6.66 20 7.32 20 8 20 C8 21.32 8 22.64 8 24 C5.36 24 2.72 24 0 24 C0 16.08 0 8.16 0 0 Z " fill="#3F1D35" transform="translate(4,6)"/>
<path d="M0 0 C0.66 0 1.32 0 2 0 C2 1.98 2 3.96 2 6 C2.66 6 3.32 6 4 6 C4 7.32 4 8.64 4 10 C10.6 10 17.2 10 24 10 C24 8.68 24 7.36 24 6 C24.66 6 25.32 6 26 6 C26 7.32 26 8.64 26 10 C27.32 10 28.64 10 30 10 C30 10.66 30 11.32 30 12 C22.08 12 14.16 12 6 12 C6 12.66 6 13.32 6 14 C5.34 14 4.68 14 4 14 C4 13.34 4 12.68 4 12 C3.34 12 2.68 12 2 12 C2 11.34 2 10.68 2 10 C1.34 10 0.68 10 0 10 C0 6.7 0 3.4 0 0 Z " fill="#26131D" transform="translate(0,20)"/>
<path d="M0 0 C0.66 0 1.32 0 2 0 C2 3.3 2 6.6 2 10 C2.66 10 3.32 10 4 10 C4 13.3 4 16.6 4 20 C3.34 20 2.68 20 2 20 C2 18.02 2 16.04 2 14 C1.34 14 0.68 14 0 14 C0 9.38 0 4.76 0 0 Z " fill="#843186" transform="translate(0,6)"/>
<path d="M0 0 C0.66 0 1.32 0 2 0 C2 1.98 2 3.96 2 6 C2.66 6 3.32 6 4 6 C4 7.32 4 8.64 4 10 C4.66 10 5.32 10 6 10 C6 11.32 6 12.64 6 14 C5.34 14 4.68 14 4 14 C4 13.34 4 12.68 4 12 C3.34 12 2.68 12 2 12 C2 11.34 2 10.68 2 10 C1.34 10 0.68 10 0 10 C0 6.7 0 3.4 0 0 Z " fill="#3E1443" transform="translate(0,20)"/>
<path d="M0 0 C1.98 0 3.96 0 6 0 C6 1.32 6 2.64 6 4 C5.34 4 4.68 4 4 4 C4 4.66 4 5.32 4 6 C2.68 6 1.36 6 0 6 C0 4.02 0 2.04 0 0 Z " fill="#BD9555" transform="translate(6,6)"/>
<path d="M0 0 C1.98 0 3.96 0 6 0 C6 1.32 6 2.64 6 4 C4.02 4 2.04 4 0 4 C0 2.68 0 1.36 0 0 Z " fill="#CCA864" transform="translate(6,26)"/>
<path d="M0 0 C1.32 0 2.64 0 4 0 C4 1.98 4 3.96 4 6 C2.68 6 1.36 6 0 6 C0 4.02 0 2.04 0 0 Z " fill="#CCA864" transform="translate(26,6)"/>
</svg>
