<?xml version="1.0" encoding="UTF-8"?>
<svg version="1.1" xmlns="http://www.w3.org/2000/svg" width="32" height="32">
<path d="M0 0 C6.6 0 13.2 0 20 0 C20 0.66 20 1.32 20 2 C20.66 2 21.32 2 22 2 C22 2.66 22 3.32 22 4 C22.66 4 23.32 4 24 4 C24 4.66 24 5.32 24 6 C24.66 6 25.32 6 26 6 C26 12.6 26 19.2 26 26 C25.34 26 24.68 26 24 26 C24 26.66 24 27.32 24 28 C23.34 28 22.68 28 22 28 C22 28.66 22 29.32 22 30 C21.34 30 20.68 30 20 30 C20 30.66 20 31.32 20 32 C13.4 32 6.8 32 0 32 C0 31.34 0 30.68 0 30 C-0.66 30 -1.32 30 -2 30 C-2 29.34 -2 28.68 -2 28 C-2.66 28 -3.32 28 -4 28 C-4 27.34 -4 26.68 -4 26 C-4.66 26 -5.32 26 -6 26 C-6 19.4 -6 12.8 -6 6 C-5.34 6 -4.68 6 -4 6 C-4 5.34 -4 4.68 -4 4 C-3.34 4 -2.68 4 -2 4 C-2 3.34 -2 2.68 -2 2 C-1.34 2 -0.68 2 0 2 C0 1.34 0 0.68 0 0 Z M2 6 C2 6.66 2 7.32 2 8 C1.34 8 0.68 8 0 8 C0 13.28 0 18.56 0 24 C0.66 24 1.32 24 2 24 C2 24.66 2 25.32 2 26 C7.28 26 12.56 26 18 26 C18 25.34 18 24.68 18 24 C18.66 24 19.32 24 20 24 C20 18.72 20 13.44 20 8 C19.34 8 18.68 8 18 8 C18 7.34 18 6.68 18 6 C12.72 6 7.44 6 2 6 Z " fill="#382904" transform="translate(6,0)"/>
<path d="M0 0 C6.6 0 13.2 0 20 0 C20 0.66 20 1.32 20 2 C20.66 2 21.32 2 22 2 C22 2.66 22 3.32 22 4 C22.66 4 23.32 4 24 4 C24 7.3 24 10.6 24 14 C23.34 14 22.68 14 22 14 C22 12.02 22 10.04 22 8 C20.68 8 19.36 8 18 8 C18 7.34 18 6.68 18 6 C12.72 6 7.44 6 2 6 C2 6.66 2 7.32 2 8 C0.68 8 -0.64 8 -2 8 C-2 12.62 -2 17.24 -2 22 C-2.66 22 -3.32 22 -4 22 C-4 16.06 -4 10.12 -4 4 C-3.34 4 -2.68 4 -2 4 C-2 3.34 -2 2.68 -2 2 C-1.34 2 -0.68 2 0 2 C0 1.34 0 0.68 0 0 Z " fill="#644B0D" transform="translate(6,0)"/>
<path d="M0 0 C0.66 0 1.32 0 2 0 C2 5.28 2 10.56 2 16 C2.66 16 3.32 16 4 16 C4 11.38 4 6.76 4 2 C4.66 2 5.32 2 6 2 C6 7.28 6 12.56 6 18 C6.66 18 7.32 18 8 18 C8 19.32 8 20.64 8 22 C12.62 22 17.24 22 22 22 C22 22.66 22 23.32 22 24 C16.06 24 10.12 24 4 24 C4 23.34 4 22.68 4 22 C3.34 22 2.68 22 2 22 C2 21.34 2 20.68 2 20 C1.34 20 0.68 20 0 20 C0 13.4 0 6.8 0 0 Z " fill="#6A5312" transform="translate(0,6)"/>
<path d="M0 0 C5.94 0 11.88 0 18 0 C18 0.66 18 1.32 18 2 C13.38 2 8.76 2 4 2 C4 3.32 4 4.64 4 6 C2.68 6 1.36 6 0 6 C0 10.62 0 15.24 0 20 C-0.66 20 -1.32 20 -2 20 C-2 14.06 -2 8.12 -2 2 C-1.34 2 -0.68 2 0 2 C0 1.34 0 0.68 0 0 Z " fill="#CEBC6A" transform="translate(4,2)"/>
<path d="M0 0 C0.66 0 1.32 0 2 0 C2 6.6 2 13.2 2 20 C1.34 20 0.68 20 0 20 C0 16.7 0 13.4 0 10 C-0.66 10 -1.32 10 -2 10 C-2 12.64 -2 15.28 -2 18 C-2.66 18 -3.32 18 -4 18 C-4 12.72 -4 7.44 -4 2 C-3.34 2 -2.68 2 -2 2 C-2 3.98 -2 5.96 -2 8 C-1.34 8 -0.68 8 0 8 C0 5.36 0 2.72 0 0 Z " fill="#352603" transform="translate(30,6)"/>
<path d="M0 0 C1.32 0 2.64 0 4 0 C4 0.66 4 1.32 4 2 C4.66 2 5.32 2 6 2 C6 5.3 6 8.6 6 12 C5.34 12 4.68 12 4 12 C4 10.02 4 8.04 4 6 C2.68 6 1.36 6 0 6 C0 4.02 0 2.04 0 0 Z " fill="#867020" transform="translate(24,2)"/>
<path d="M0 0 C1.32 0 2.64 0 4 0 C4 0.66 4 1.32 4 2 C3.34 2 2.68 2 2 2 C2 6.62 2 11.24 2 16 C1.34 16 0.68 16 0 16 C0 10.72 0 5.44 0 0 Z " fill="#E2D279" transform="translate(2,6)"/>
<path d="M0 0 C0.66 0 1.32 0 2 0 C2 3.3 2 6.6 2 10 C0.68 10 -0.64 10 -2 10 C-2 9.34 -2 8.68 -2 8 C-1.34 8 -0.68 8 0 8 C0 5.36 0 2.72 0 0 Z " fill="#5F480D" transform="translate(28,16)"/>
<path d="M0 0 C2.64 0 5.28 0 8 0 C8 0.66 8 1.32 8 2 C7.34 2 6.68 2 6 2 C6 2.66 6 3.32 6 4 C5.34 4 4.68 4 4 4 C4 3.34 4 2.68 4 2 C2.68 2 1.36 2 0 2 C0 1.34 0 0.68 0 0 Z " fill="#5F4A0E" transform="translate(18,0)"/>
</svg>
